<svg width="80" height="80" viewBox="0 0 80 80" fill="none" xmlns="http://www.w3.org/2000/svg">
  <rect width="80" height="80" rx="16" fill="#FFF7ED"/>
  <!-- Sun (morning) -->
  <circle cx="28" cy="32" r="10" fill="#FB923C"/>
  <g stroke="#FB923C" stroke-width="2" stroke-linecap="round">
    <line x1="28" y1="14" x2="28" y2="18"/>
    <line x1="28" y1="46" x2="28" y2="50"/>
    <line x1="10" y1="32" x2="14" y2="32"/>
    <line x1="42" y1="32" x2="46" y2="32"/>
    <line x1="15.3" y1="19.3" x2="18.1" y2="22.1"/>
    <line x1="37.9" y1="41.9" x2="40.7" y2="44.7"/>
    <line x1="15.3" y1="44.7" x2="18.1" y2="41.9"/>
    <line x1="37.9" y1="22.1" x2="40.7" y2="19.3"/>
  </g>
  <!-- Moon (evening) -->
  <path d="M52 58C52 51.4 57.4 46 64 46C59 46 55 41 55 35C55 41 51 46 46 46C52.6 46 58 51.4 58 58C58 54 55 51 52 51C55 51 58 54 58 58H52Z" fill="#94A3B8"/>
  <circle cx="52" cy="52" r="10" fill="#94A3B8"/>
  <circle cx="56" cy="48" r="8" fill="#FFF7ED"/>
  <!-- Separator -->
  <line x1="40" y1="24" x2="40" y2="56" stroke="#E2E8F0" stroke-width="2" stroke-dasharray="4 4"/>
</svg>
